/* XPM */
static char *b362189cb1b344f7d4d9243847b384ddnnqWG5XRVlx7Cs9S[] = {
/* columns rows colors chars-per-pixel */
"24 64 245 2 ",
"   c #030404",
".  c #0C0603",
"X  c #030C02",
"o  c #0C0C03",
"O  c #01050B",
"+  c #0B050A",
"@  c #030B0B",
"#  c #0C0C0C",
"$  c #140603",
"%  c #190403",
"&  c #120B04",
"*  c #1B0B02",
"=  c #12030C",
"-  c #130C0B",
";  c #1A0C0B",
":  c #1A060D",
">  c #021203",
",  c #0B1205",
"<  c #04120B",
"1  c #0B120B",
"2  c #001A04",
"3  c #131002",
"4  c #12120D",
"5  c #18150A",
"6  c #020313",
"7  c #0C0513",
"8  c #030C12",
"9  c #0C0B12",
"0  c #01031C",
"q  c #010B1B",
"w  c #0D0C1B",
"e  c #120513",
"r  c #120B13",
"t  c #1B0C13",
"y  c #140B1A",
"u  c #19061A",
"i  c #031312",
"p  c #0D1114",
"a  c #021119",
"s  c #08131A",
"d  c #0C1914",
"f  c #131214",
"g  c #12131B",
"h  c #260907",
"j  c #271705",
"k  c #3D1A0A",
"l  c #381704",
"z  c #281713",
"x  c #391616",
"c  c #290E13",
"v  c #222407",
"b  c #3C2901",
"n  c #3A320A",
"m  c #35201F",
"M  c #2C2F1A",
"N  c #030C22",
"B  c #000020",
"V  c #120922",
"C  c #091323",
"Z  c #101420",
"A  c #311525",
"S  c #44180A",
"D  c #441919",
"F  c #561414",
"G  c #55150E",
"H  c #631C02",
"J  c #691C09",
"K  c #781A03",
"L  c #671E14",
"P  c #4C2807",
"I  c #572704",
"U  c #5B3B08",
"Y  c #56350F",
"T  c #682708",
"R  c #792A05",
"E  c #6B2613",
"W  c #752515",
"Q  c #6A3415",
"!  c #7A3716",
"~  c #783403",
"^  c #471822",
"/  c #512A25",
"(  c #554200",
")  c #724207",
"_  c #715100",
"`  c #6E471D",
"'  c #911E0D",
"]  c #8E220D",
"[  c #9A2808",
"{  c #823A0B",
"}  c #97370F",
"|  c #922515",
" . c #A52503",
".. c #A3310F",
"X. c #B43D04",
"o. c #A23612",
"O. c #B73014",
"+. c #8D3430",
"@. c #FC1B07",
"#. c #C33105",
"$. c #CA2A1B",
"%. c #CA2D13",
"&. c #EF2B01",
"*. c #ED2700",
"=. c #FC2201",
"-. c #F32B00",
";. c #FE2C01",
":. c #FA2D0E",
">. c #EE3300",
",. c #ED3B02",
"<. c #EC3C0A",
"1. c #E63009",
"2. c #F53303",
"3. c #FD3402",
"4. c #F53C01",
"5. c #FD3C02",
"6. c #FD340A",
"7. c #F53A0A",
"8. c #FE3C0B",
"9. c #F4320D",
"0. c #FB2C14",
"q. c #EA3B15",
"w. c #FE3514",
"e. c #FD3B12",
"r. c #FF341A",
"t. c #F9361E",
"y. c #F03B20",
"u. c #D41715",
"i. c #885A08",
"p. c #945C07",
"a. c #8F5017",
"s. c #AA5707",
"d. c #B14712",
"f. c #9E6611",
"g. c #BF6F16",
"h. c #AF730C",
"j. c #CC4C08",
"k. c #CC4E0E",
"l. c #ED4207",
"z. c #FE4203",
"x. c #FD4A02",
"c. c #FC440D",
"v. c #F14605",
"b. c #EC5605",
"n. c #FD5C02",
"m. c #FE5C0B",
"M. c #F75705",
"N. c #F84618",
"B. c #DB6F0C",
"V. c #FE6204",
"C. c #FC6C02",
"Z. c #F86608",
"A. c #F37002",
"S. c #FC7504",
"D. c #FD7D01",
"F. c #FF6815",
"G. c #FD7511",
"H. c #F95725",
"J. c #FF4826",
"K. c #FC7F22",
"L. c #F76A38",
"P. c #EE712F",
"I. c #FB7049",
"U. c #D48A12",
"Y. c #C78411",
"T. c #FB8300",
"R. c #FF8C05",
"E. c #FD8D0A",
"W. c #FB8A06",
"Q. c #EC9F00",
"!. c #FD9403",
"~. c #FD9B03",
"^. c #FA950C",
"/. c #FD9B0C",
"(. c #F39405",
"). c #FA8912",
"_. c #F49B13",
"`. c #FF9614",
"'. c #E29813",
"]. c #D5AA06",
"[. c #EFA007",
"{. c #FFA402",
"}. c #F7A603",
"|. c #FBA716",
" X c #E8AA11",
".X c #FD8C2E",
"XX c #F0B12E",
"oX c #F1B02C",
"OX c #E88547",
"+X c #F59B5F",
"@X c #DEBC51",
"#X c #E0B149",
"$X c #FF8F60",
"%X c #FAA466",
"&X c #FFAF78",
"*X c #EEB07D",
"=X c #FDB877",
"-X c #FCB16D",
";X c #EAD557",
":X c #F1D253",
">X c #E8CD4C",
",X c #E9E546",
"<X c #DEDE68",
"1X c #D4D074",
"2X c #EBD663",
"3X c #FBC57F",
"4X c #D2ED7A",
"5X c #F7A580",
"6X c #F9C68B",
"7X c #F4D283",
"8X c #F5D48E",
"9X c #F6DB93",
"0X c #E7C484",
"qX c #D6E989",
"wX c #C9EC98",
"eX c #F9E99D",
"rX c #E5F39D",
"tX c #F4F39A",
"yX c #FBDCA6",
"uX c #F8E7A5",
"iX c #EBFCA2",
"pX c #E6F9AA",
"aX c #F3F4A4",
"sX c #FCFAA4",
"dX c #F4F5AB",
"fX c #FAF3AA",
"gX c #F3FAAE",
"hX c #FBFCAF",
"jX c #F8F7A6",
"kX c #F8EEB3",
"lX c #EAF9B3",
"zX c #F3F4B3",
"xX c #F5FEB4",
"cX c #FEFCB4",
"vX c #FAFCBA",
"bX c #CEF7B1",
"nX c #E6FEC5",
"mX c #F8FEC7",
"MX c #F7FCD7",
"NX c #FBEDC6",
"BX c #EFFFEE",
"VX c #FBFBEB",
"CX c #FEFDF3",
"ZX c #FAFCFE",
"AX c #FBFAF8",
/* pixels */
"# # # # # # # # y e 9 1 X 1 # # # # # # # # # # ",
"# # # # # # # # # , 1 o - t - # - # # # # # 1 # ",
"# # # # # # # - X < 8 r = O @ r # # # # # # # # ",
"# # # # 1 # # # ; # @ = f < < 9 # # # # # # # # ",
"# # # # # # # # + - 3 $ # @ o $ # # # # # # # # ",
"# # # # # # # # s 8 9 i X 1 = y # # # # # # # # ",
"# # # # # # # # p   # < # t 9 a # # 9 1 # # # # ",
"# # # # # # # # 8 T k.~ o N # 3 # # # # # # # # ",
"# # # # # # #   x Z.F.V.z i & 9 # # # # # # # # ",
"# # # # # # # # X.n.{ Q l o - , # # # # # # # # ",
"# # # # f # # # X.R . O ; 0 f X # # 1 # # # # - ",
"# o # # # # # # / + 7 9 8 q 4 s # # # # # # # # ",
"# # # + # # # # Z . r # , * X 7 # # # # # # # # ",
"# # # # # # # # 9 & . 1 8 e r o # # # # # # # # ",
"# # # # # # # # . f 4 f x 7 9 , # # # # # # # # ",
"# # # # # # # # 1 $ < f j.Q 6 o # # # # - # # # ",
"9 # & 8 1 8 # y o N 5 O d.j.7 o # # # # # # # # ",
"< O $ o s z l 8 4 @ ; O d.} 6 o # # # # # # # # ",
"> 7 9 & 6 R d.  9 o - O { J 6 o # # # # # # # # ",
"o r i # . j.F.S O o r # l x @ # # # # # # # # # ",
"& = i O T V.n.! @ i # = 9 r # # # # # # # # # 9 ",
"# X # 6 d.n.b.H @ 1 @ o N # & # # # # # # # # # ",
"# 2 9 8 o.v.d.t f P @ & 9 9 1 - # # # # # # 1 # ",
"9 . w @ I l.H N z p.9 3 $ p > r # # # # # # # # ",
"o r + X c +.^ @ j Q.i.B # > > = , r - 4 6 f o 8 ",
"4   f p $ A x O U |.~.a.3 & w . 9 g o # w o # # ",
"X g + @ # q ; O h.}.`.~.h.A O g , O 8 4 9 9 # # ",
"X p 7 1 1 ; 6 n _./.[.!.~.'.` X r 1 8 o o V o # ",
"9 . p   1 = o Y.{. X:XoX|.(.{.i.V # > , - o # & ",
"r & , @ e O i.{./.>X2X;X;XXX[.}._ + < o y   @ ; ",
"- + , d = U |._.:X,X>X2X:X^./._.].z q o y Z @ r ",
"O 5 # 6 v R.`.;X<X<X4X;X^.~.U.k } ( 6 w & < X & ",
"@ p = 6 p.{.@XqXqXqXwXXX!.!.M   ; v f X 9 o - + ",
", # r 4 U.!.1XbX1X1XqX X{.h.  s w # . # 8 f o 8 ",
"o 1   b !.!.#X1X(.^.oXW.{.` B C   N & e 8 - & 8 ",
"8 o 9 b /./._.|.!.!._./.}.) + j P 8 p + 9 o - i ",
"w o O n /.!.W.^.!.!.!.T.Q.h.O 2 g.j 8 # 9 r o # ",
"# ;   Y !.T.R.T.E.E.W.D.`.E.! ~ E.f.@ X r r # & ",
"@ # # P B.s.P.D.S.D.D.D.A.D.K.).S..XI   f # i & ",
", + O m P 6 k B.S.C.G.A.F.S.V.A.A.C.s.7   4 w . ",
"# X u o i o 0 Q V.M.A.M.Z.Z.V.V.n.G.k.o u 2 - = ",
", - 7 1 > t # S Z.x.Z..XM.b.n.n.n.b.o.i @ # . < ",
"1 o 9 # o u X j b.z.,.7XL.4.x.x.v.N.j @ 5 # # @ ",
"# X w % d * X x z.3.v.eX8XN.2.v.z.R @ * X 9 p r ",
"7 , o @ x S   x 6.4.c.eXvX&Xr.l.8.E $ $ 8 - 8 # ",
"y # 3 @ | F @ S c.3.H.hXpXcX*X5.2.q.K @ C - # > ",
"r + 4 k <.S 6 H z.-.$XlXeXpXMXI.;.4.N.| o e # , ",
"1 o q $.x.j 6 [ 4.9.6XvXtXzXVXyX8.2.v.z.J q 1 = ",
"i X  .5.3.} L 2.3.H.dXiXhXiXnXCXP.2.3.5.<.h + < ",
"8 K c.v.2.5.e.N.=.%XlXaXfXkXCXZX%X3.5.v.8.L @ # ",
"h q.2.e.8.v.z.3.H.gXlXfXjXNXAXZX6X3.3.,.8...@ # ",
"R 8.N.<.=.2.-.c.7XlXfXgXsXMXBXAXyXz.3.2.5.#.7 # ",
"%.-.L.7XL.H.L.eXcXlXsXrXfXAXAXCXuX8.;.4.3.X.e @ ",
"%.5.N.cXdXaXhXlXdXuXsXpXMXAXZXZXeX2.8.4.3...O # ",
"X.8.<.9XvXdXzXcXlXaXdXjXmXMXCXCX6X3.6.4.8.E @ # ",
"[ 6.-.&XxXtXkXaXjXsXxX6X*X6XvXMX-X<.3.3.<.c # # ",
"b w.&.L.cXeXdXzXgX6XH.3.0.-.OXmXOX=.6.q. .@ y o ",
"+ $.2.;.0XxXaXxX%X1.;.3.7.3.7.=XH.*.5.y.* i : - ",
"7 l r.,.J.fXxX+X@.5.5.2.7.6.;.c.3.,.6.H i = 9 # ",
"X 2 W w.*.I.9X:.6.9.:.w.6.<.7.6.6.c.] X : u < X ",
", =   ] y.w.N.7.;.Y * I O.9.:.t.r. .+ p o f # $ ",
"u + d X ] r.;.3.[ @ e X $ O.e.>.#.; 8 7 i o < : ",
"V @ + p   l $.0.F 6 # t q + u.=.l 9 r # e , . 8 ",
"X r e X t a % K * O 9   5 @ F H 8 , # 9 1 = i r "
};
