/* XPM */
static char *_f24d8abd09e405acfba31e753167c7fPXI2Hk8SteCZGl00[] = {
/* columns rows colors chars-per-pixel */
"26 64 199 2 ",
"   c #070C0C",
".  c #0C0C0C",
"X  c #130E0C",
"o  c #1D0E0C",
"O  c #15110C",
"+  c #1C120D",
"@  c #0A0B10",
"#  c #140E10",
"$  c #180E11",
"%  c #1D1311",
"&  c #290D0C",
"*  c #22140D",
"=  c #2D140C",
"-  c #241B0D",
";  c #2C1B0D",
":  c #30140D",
">  c #3D160D",
",  c #351B0D",
"<  c #3C1D0B",
"1  c #271512",
"2  c #3A1915",
"3  c #31240D",
"4  c #4F0D0D",
"5  c #421C0D",
"6  c #55170B",
"7  c #5D1C0C",
"8  c #4D1D16",
"9  c #69170E",
"0  c #4B230E",
"q  c #47290C",
"w  c #56240C",
"e  c #5C280D",
"r  c #4A320D",
"t  c #5F3E0E",
"y  c #65290C",
"u  c #79220B",
"i  c #742B0D",
"p  c #79330D",
"a  c #69231E",
"s  c #782110",
"d  c #5C1F2A",
"f  c #6C2526",
"g  c #68450C",
"h  c #764A09",
"j  c #7B510B",
"k  c #AC160C",
"l  c #A41F0D",
"z  c #B6130C",
"x  c #B21F0D",
"c  c #83240B",
"v  c #892709",
"b  c #93260A",
"n  c #8F300B",
"m  c #893A0A",
"M  c #9B3E0B",
"N  c #8A2C15",
"B  c #A42A0A",
"V  c #AA2909",
"C  c #AD2A0A",
"Z  c #B42C09",
"A  c #A63A0A",
"S  c #B73507",
"D  c #BC3B0A",
"F  c #A7331D",
"G  c #B93710",
"H  c #A63020",
"J  c #B23520",
"K  c #CE150B",
"L  c #D1160A",
"P  c #DD1609",
"I  c #F51508",
"U  c #C72D0C",
"Y  c #D72F0A",
"T  c #C23006",
"R  c #C83905",
"E  c #C33A0A",
"W  c #DD3706",
"Q  c #D53609",
"!  c #FD230A",
"~  c #F82609",
"^  c #FC2F0E",
"/  c #EE3905",
"(  c #EB3408",
")  c #FC3503",
"_  c #F43B05",
"`  c #FD3B02",
"'  c #FB330C",
"]  c #F5390B",
"[  c #FB3D14",
"{  c #934309",
"}  c #89570B",
"|  c #A34109",
" . c #AD4309",
".. c #B84509",
"X. c #BC4A0B",
"o. c #B05A09",
"O. c #A6690A",
"+. c #AE7007",
"@. c #C84607",
"#. c #C94E08",
"$. c #D44305",
"%. c #DB4503",
"&. c #D74B07",
"*. c #CE5009",
"=. c #D65306",
"-. c #D65B1D",
";. c #E54903",
":. c #E44B04",
">. c #FF4202",
",. c #F44C03",
"<. c #FE4C03",
"1. c #FB430C",
"2. c #E65607",
"3. c #EB5605",
"4. c #E85807",
"5. c #F25304",
"6. c #FA5504",
"7. c #F55A06",
"8. c #FD5B04",
"9. c #FC5C0A",
"0. c #FB4816",
"q. c #E95811",
"w. c #F65719",
"e. c #DF7305",
"r. c #E56201",
"t. c #FC6304",
"y. c #F86B05",
"u. c #FA7503",
"i. c #F56519",
"p. c #F46B1D",
"a. c #F95827",
"s. c #FA5F33",
"d. c #DD6E2D",
"f. c #DF7634",
"g. c #F9642D",
"h. c #F86A29",
"j. c #EE742C",
"k. c #F6792B",
"l. c #FA6233",
"z. c #FA6B3A",
"x. c #ED7F37",
"c. c #F97737",
"v. c #FA7A3C",
"b. c #F97A41",
"n. c #D28607",
"m. c #D68607",
"M. c #E88E06",
"N. c #FE8204",
"B. c #FF8E04",
"V. c #F79607",
"C. c #FD9604",
"Z. c #FD9A02",
"A. c #F2950D",
"S. c #FAA61D",
"D. c #F89E2F",
"F. c #E8823C",
"G. c #FB8E38",
"H. c #DF9B5C",
"J. c #F9854A",
"K. c #F98C52",
"L. c #E29B5B",
"P. c #F79557",
"I. c #F99559",
"U. c #F9A74A",
"Y. c #F9BC5B",
"T. c #F99D65",
"R. c #DCA366",
"E. c #D9B375",
"W. c #F8A665",
"Q. c #F7B673",
"!. c #F7BD7C",
"~. c #F9BD7C",
"^. c #F7C26C",
"/. c #F6C27D",
"(. c #D6BD83",
"). c #D3C58B",
"_. c #F8CC81",
"`. c #F6D48D",
"'. c #F6D88F",
"]. c #F7D590",
"[. c #F5DC95",
"{. c #F6E49B",
"}. c #F8E399",
"|. c #F4EA9F",
" X c #F5EEA3",
".X c #F5F4A6",
"XX c #F5F6AA",
"oX c #F8F5AB",
"OX c #F5F8AC",
"+X c #F6F7B2",
"@X c #F7F8BC",
"#X c #F8F7C3",
"$X c #F8F9CA",
"%X c #FAFAD3",
"&X c #FAFBDB",
"*X c #FCFBE6",
"=X c #FCFCEA",
"-X c #FEFEF5",
";X c #FEFEFD",
/* pixels */
". . . . . . . . * % . . . . . . . . . . . . . . . . ",
". . . . . . .   w p . . . . . . . . . . . . . . . . ",
". . . . . X . X | 4.5   # . . . . . . . . . X . . . ",
". . . . . . . y 3.9.p   . . . . . . X . . . . . . . ",
". . . . . . 2 $.5.%.0   @ . . . . . . . . . . . . . ",
". . . . .   y $.D w . . . . . . . . . . . X . . . . ",
"X . . . . . 8 H 5 @ . . . . X . . . . . . . . . . . ",
". . . . . . % d $ @ . . . . . . . . . . . . . . X . ",
". . . . . . . X # # .   . . . . . . . . . . . . . . ",
". . . . . . . . # 2 f a 8 1 # @ . . . . X . . . X . ",
". . . . X . . . @ X a J J F N 8 O . .   . . . . . . ",
". . . . . . . . .   5 G D E E R n = . . . . . . . . ",
". . . . . . . . .   5 E R $.R $.$.S , . . . . . . . ",
"X . . . . . . . . . y $.%.-.-.%.%.;.A * . X . . . . ",
". . . . . . . .   o A ;.%.d.R.f.:.;.;.p . . . . . . ",
". . . . . . . .   w :.;.q.H.E.E.F.5.5.$.= . . . . . ",
". . . . . . . . < @.,.w.H.(.).E.E.i.6.6.i   . . . . ",
". . . . . . . * ..6.j.R.R.L.H.E.).k.6.8. .X . . . . ",
". . . . . . X M 9.p.j.i.9.6.9.h.).x.6.8.&.+ . . . . ",
". X . . . . e 5.9.t.9.5.4.7.8.8.L.x.8.8.=.* . X . . ",
". . . . . X  .8.8.3.m 5 < e X.9.k.p.8.8.*.+ . . . . ",
". . . . . + #.8.7.p .       % ..8.7.8.8.m . . . . . ",
". . . . . X { 9.#.+   X X     3 2.8.8.#.= . . . . . ",
". X . . @   < *.| . X g - .   O ..4.M ; . . . . . . ",
". . . . . . . < e X ; n.j @ @ X 0 5 O . X . . . . . ",
". . . . . . . . . . g Z.M.h O       . . . . . . . . ",
". . . . . . . . . O O.Z.Z.V.O.; . . . .   . . . . . ",
". . . . . . . . . ; m.Z.Z.Z.Z.+.+ . . .   = *   . . ",
". . . . . . . . . r V.Z.Z.Z.V.V.h   . . . y e . . . ",
". . . . . . . .   g Z.Z.Z.Z.Z.Z.} . . . X | y   . . ",
"X . . . . . . .   h V.S.Z.C.C.m.q   .   , *.< . . . ",
". . . . . . . .   p V.Y.A.B.C.e.O   . . 0  .O   . X ",
". .   X   O % X   t N.^.D.N.N.o.. . . . ; e   . . . ",
". . . . O } n.h   q u.Y.U.u.u.o.X . . . X X . . . X ",
". . .   g V.Z.n.* , r.U.^.y.y.y.m * . . . . . . . . ",
". .     { N.C.M.3 = 2.G.}.k.9.t.t.=.p * . . . . . . ",
". . . . s ,.t.e.; : :.G..X_.k.9.5.8.8...=   . . . . ",
"X . .   = B R @.+ 0 ,.h. XOX X_.v.<.<.<.n . . X . . ",
". . . . . . > c . v ` c..XXXOXOX_.1.` >.R o   . . . ",
". . . . . . * : : Q ` I.OXOXoXOX!.` ` ` R o . X . . ",
". . .   . . . o b ` 1./.oXoXOXOXK.) ` ` S o   . . . ",
". . . . . . X v _ ) z.|.OXoX.XoXv.) ` ` S X . . . . ",
". . . . . . c _ ` 1.!..XoXOXoXoXP.` ` ` T X . . . . ",
". . X . . u _ ` _ J..X.XOXOX.XOX`.0.) ` ( = . . . . ",
". .   . 7 / ` ` c.{.XX.XXX#X+XXX.XQ.1.) _ u .   . . ",
". X   > W ` ` h.[.OXXXXXXX&X&XXXoX.XQ.1.` W 5   . . ",
". . O V ` ) a.'.OXXXXXXX+X*X;X$XoXXXoXI.) ` T =   . ",
". . 6 _ ) w._.OXXXXXXX.X#X-X;X-X@XXXOX}.a.) ` Z +   ",
". X B ) _ Q.OXoXoXXXXXXX&X;X;X;X&XXXOXOXT.) ` _ b X ",
"  = ( ` J..XoXOXXXXXXXXX*X;X;X;X=XXXoXOX`.0.) ` / 7 ",
"  7 _ 0.'.OX.XXXXXXXXXXX*X;X;X;X*XXXXXXX Xa.) ) ` T ",
"  c ) v..XXXXXXXXXXX.XXX&X;X;X;X%XXXXXXXXXv.) ) ) / ",
". B ` T.oXoXOXXXXXXXOXXX$X;X;X*X+XXXXXXXXXJ.) ) ) ` ",
"X Z ` W.OXXXoXXXXXXXXX.X+X-X*X@XXXXXXXXXXXc.) ) ) _ ",
". Z ) P.OXXXoX.XXXXXXXXXXX#X+X.XXXXXXXXX{.a.) ) ) ( ",
". b ) z..X.XXXOXXXXX.XOXoXXXOXOXXXXXXXOX!.] ) ' ) Z ",
"  9 ' [ !.OXXXoXXXXX.XoX[.].[.oXoXoXoX.Xb.) ) ) ( 6 ",
"  = Y ' l.}.oXoX.XOX[.K.a.0.a.b.].oXOX!.[ ) ' ' B o ",
"X . s ' ' g.~.|.OX].s.( ( [ ^ ^ a.`.[.a.^ ' ' U : . ",
".   o C ' ^ [ z.T.z.( s 2 V ' ^ ^ l.l.' ^ ' U 2   . ",
"  . . = x ~ ! I ! ! x X @ o k ! ! ! I ! ~ l : . . . ",
". . . . & 9 k L P K 4 . . . & z I I P k 4 X   . . . ",
". . . . . . X o & o .   . . . o 4 4 : X   . X . . . ",
". . . . . . . .     . X . .     .   . . .   . . . . "
};
