/* XPM */
static char *_cac3320bd2c47faef4a0509daf703f11DOryrGR0FktaztO[] = {
/* columns rows colors chars-per-pixel */
"24 64 197 2 ",
"   c #060B0B",
".  c #0C0C0C",
"X  c #130E0C",
"o  c #1B0F0C",
"O  c #14110D",
"+  c #1C120C",
"@  c #1D180E",
"#  c #1C1114",
"$  c #210F0B",
"%  c #25110D",
"&  c #2C140D",
"*  c #2A1D0C",
"=  c #34150C",
"-  c #3D160C",
";  c #321A0C",
":  c #28131A",
">  c #2E220C",
",  c #38270C",
"<  c #3D2A0D",
"1  c #41170E",
"2  c #44190C",
"3  c #4C1A0C",
"4  c #521B0D",
"5  c #5A1D0C",
"6  c #451C17",
"7  c #641D0C",
"8  c #711E0B",
"9  c #6F1E11",
"0  c #43230C",
"q  c #4B220C",
"w  c #432D0C",
"e  c #532D0B",
"r  c #592C0C",
"t  c #4B330D",
"y  c #57340B",
"u  c #6A2C0B",
"i  c #732209",
"p  c #79270A",
"a  c #652415",
"s  c #67460A",
"d  c #734B0B",
"f  c #8B260C",
"g  c #90260C",
"h  c #98290A",
"j  c #873A09",
"k  c #9C3809",
"l  c #A62A0A",
"z  c #AA2B0A",
"x  c #B32C0A",
"c  c #B62C0A",
"v  c #B63406",
"b  c #B83B09",
"n  c #A03710",
"m  c #C72D0B",
"M  c #C53106",
"N  c #CB3106",
"B  c #CA3308",
"V  c #D73406",
"C  c #DB3505",
"Z  c #DD300A",
"A  c #E93306",
"S  c #E63806",
"D  c #ED3905",
"F  c #E6310F",
"G  c #EF320C",
"H  c #F73705",
"J  c #FC3503",
"K  c #F43A04",
"L  c #FD3A02",
"P  c #F5340B",
"I  c #FC340A",
"U  c #FB3B0C",
"Y  c #FB3D12",
"T  c #8A480A",
"R  c #865509",
"E  c #8D5B0A",
"W  c #9D5F08",
"Q  c #AA4609",
"!  c #B44F08",
"~  c #A5690A",
"^  c #B67406",
"/  c #BC7409",
"(  c #C64908",
")  c #D34D06",
"_  c #D75307",
"`  c #FC4B06",
"'  c #FB440C",
"]  c #EC5605",
"[  c #FE5403",
"{  c #FC5805",
"}  c #FB4312",
"|  c #FA4913",
" . c #FB4E19",
".. c #FB5117",
"X. c #FB551C",
"o. c #CE7A08",
"O. c #EF6404",
"+. c #FD6302",
"@. c #F46D03",
"#. c #FE6C02",
"$. c #E77E04",
"%. c #FD7502",
"&. c #FF7B03",
"*. c #F87A06",
"=. c #F4611D",
"-. c #F57519",
";. c #F75C27",
":. c #EB5E31",
">. c #FA652B",
",. c #F27625",
"<. c #F86A36",
"1. c #F96A36",
"2. c #FB783D",
"3. c #F97B44",
"4. c #D68506",
"5. c #DE8B06",
"6. c #E78F05",
"7. c #FC8502",
"8. c #FD8E09",
"9. c #EA9005",
"0. c #F59603",
"q. c #FE9403",
"w. c #F79805",
"e. c #FD9A03",
"r. c #F98B13",
"t. c #F89517",
"y. c #F9A20D",
"u. c #FAA817",
"i. c #F39025",
"p. c #F5AC22",
"a. c #F4B227",
"s. c #EEA637",
"d. c #F2A232",
"f. c #EEBB3A",
"g. c #F0C035",
"h. c #E28D4E",
"j. c #F88248",
"k. c #F98D50",
"l. c #E19254",
"z. c #F79459",
"x. c #F9975A",
"c. c #E8AF4F",
"v. c #EEBD40",
"b. c #E6A955",
"n. c #DA8560",
"m. c #DB9868",
"M. c #D69873",
"N. c #F89F62",
"B. c #F6A062",
"V. c #F8A569",
"C. c #F8AB6B",
"Z. c #E2B364",
"A. c #F9B06E",
"S. c #F5AF72",
"D. c #F6B373",
"F. c #F6B776",
"G. c #ECC94A",
"H. c #ECD24E",
"J. c #E8C552",
"K. c #EACA54",
"L. c #EBD252",
"P. c #DDCF78",
"I. c #E3CA66",
"U. c #F7C37F",
"Y. c #BBC1B5",
"T. c #D6CC88",
"R. c #D4D48B",
"E. c #CED79F",
"W. c #F6C683",
"Q. c #F8C480",
"!. c #F6CC85",
"~. c #F7CD89",
"^. c #F6D18B",
"/. c #F4D88F",
"(. c #F6DC94",
"). c #F7DF9A",
"_. c #F7E299",
"`. c #F6E59B",
"'. c #C7D7A9",
"]. c #C1DAB8",
"[. c #F6ECA3",
"{. c #F5F3A6",
"}. c #F5F6AA",
"|. c #F5F9AC",
" X c #F6F7B2",
".X c #F6F8B4",
"XX c #F6F8BB",
"oX c #B6E3CE",
"OX c #B2E3D9",
"+X c #F6F9C6",
"@X c #FAFACF",
"#X c #FAF9D1",
"$X c #F9FADB",
"%X c #FCFCE4",
"&X c #FCFCEA",
"*X c #FCFEF4",
"=X c #FEFEFB",
/* pixels */
". . . . . . . . 1 e X . . . . . . . . . . . . . ",
". . . . . . . = _ ] a . . . . . . . . . . . . . ",
". . . . . . . * ! ) k . . . . X X . . . . . . . ",
". . . . . . . . o 6 a . . . . . . . . . . . . X ",
". . . . . . . . . : # . . . . . . . . . . . . . ",
". . . . . . . . .   . . . . . . . . . . . . . . ",
". . . . . . . X . O X . X r & . . . . . . . . . ",
"X . . . . . . .   > 0 . % _ u   . . . X . . . . ",
". . . . . . . . . w ~ O O n q X . . . . . . . . ",
". . . . . . . . . s 5.> . : X . . . . . . . . . ",
". . . . . . . . X ~ 5.> . . . . . . . . . . . X ",
". . . . . . . . , 6.^ O . . . . . . . O . . . . ",
". . . . . . . . R e.d     . . . . . . . . . . . ",
". . . . . .   > 4.9., O X . . . . . . . X . . . ",
". . . X . X X E e.4.@ < d X . . . . . . . . . . ",
". . . . . . t 9.e.5.: w 6.s . . . . . . . . . . ",
". . . . . + / e.e.e.E s 0.5.< . . . . . . . . . ",
". . . . . s w.u.e.e.0.9.e.e.~ X . . . . . . . . ",
". . .   @ o.e.g.a.y.a.u.e.e.9.w   . . . . . . . ",
"X . .   t 0.y.G.H.H.H.G.y.e.e.R . . . . . . . . ",
". . . . W q.p.L.L.L.L.L.a.q.q.o.O . . . . . . . ",
". . . * o.q.f.K.K.K.K.K.v.8.7.$.; . . . . . . . ",
". .   y 7.t.J.K.J.K.J.G.J.r.7.$.w . . . . . . . ",
". .   T &.d.I.I.I.I.s.r.i.r.*.*.e . . X . . . . ",
". . X Q &.c.P.P.P.c.*.%.%.&.%.%.r   . . . . . . ",
". . O ! #.Z.R.R.T.i.#.#.#.#.#.@.e   . . . . . . ",
". . O ! #.b.E.E.T.-.+.+.#.#.#.O.1 . . . . . . . ",
". .   j +.,.E.].'.,.+.+.+.( k _ ; . . . . . . O ",
". .   0 ] { h.Y.Y.l.[ { ] 0 * Q + . . . . . . . ",
". . . O k [ { m.oX].=.[ ( X ; p . . . . . . . . ",
". . . . & b ` ` M.OXM.` v X ; = . . . . . . . . ",
". . . . . & b ` ` n.Y.>.v X X . . . . . . . . . ",
". . . . . . & B L ' :.;.N o . O o . . . . . . . ",
"X . . . . . . 5 K L L L D 1   = h % . . . . . . ",
". . . . . . . & S L L L L v 1 g L l o . . . . . ",
". . . . . . . ; S L L L L K D L L K 8 . . . . . ",
". . . . . .   3 K L >...L L L L L L B + . . . . ",
". + 3 + . . O z ' L A.!.2... .>.` L D - . . . . ",
". g K z 3 1 h U L ' W.|.}._._./...L K 4 . . . . ",
"& C L L K D L L L X._.|.}.|.}.^.| L K 2 . . . . ",
"q K L L L L L L J j.{.}.}.}.}.C.L L D = . . . . ",
"3 K L L L L L L | U.}.}.}.}.|.2.L L V % . . . . ",
"$ M J L L ' | X.V.}.}.|.}.}.`.>.L L V % . . . . ",
". 3 C L L ;.U.`.}.}.}.}.}.}.[.;.J L K 5 . . . . ",
". . 3 B H U k.}.}.}.}.}.}.}.}.3.H L L M &   . . ",
". . . = B L ' !.|.}.}.}.}.|.}.~. .J L J x % . . ",
". . .   7 L J B.|.}.}.}.}.}.|.}.S.' J L L f . . ",
". . . . 3 K J x.|.|.}.}.}.{.|.}.}.C.' L L S - . ",
". . .   p J J D.|.}.}.}.}.}.|.XX}.}.x.H L L i . ",
". . . % N L  .(.|.}.}.}.}.}. X#XXX}.`.>.J J l X ",
". .   i L J j.}.|.}.}.}.}.}.{.@X%X.X|.B.J L x X ",
". . % N J } Q.|.|.}.}.}.}.}.{.+X=X#X|.W.' J z X ",
". . 7 J J 2.{.}.}.}.}.}.}.{.}.#X=X&X.X(.| J g . ",
". X z J U U.}.}.}.}.}.}.}.}. X%X=X&X X^.' J 8 . ",
"  % V J 1.{.}.}.|.}.}.}.}.}.@X*X=X@X XD.U A 1 . ",
". = A J A.|.}.}.}.}.|.|..X$X=X*X#X|.[.1.J x X . ",
". = A } ~.|.}.}.}.}.F.D.[.+X&X+X}.}.B.U P 5 . . ",
". & Z Y ~.|.}.}.{.N.U I k.[..X}.{.V.Y H h X . . ",
". X x I z.}. X}.F.U I J Y !.|._.j.P J c % . . . ",
". . 7 P } S. X[.1.P I I I N.).<.I I m = . . . . ",
". . # l I Y z.S.Y I F G I 1.3.I J x & . . . . . ",
". . . # l I I Y I m 1 l I P I G h $ . . . X . . ",
". . . . o 9 m P P 9   - F G c 4 X . . . . . . . ",
". . . . . . & 7 9 # . o 9 4 o . . . . . . . . . "
};
