/* XPM */
static char *eab75fd24ff0440eabb1789e4e40f28eAi0gGLJhvA6pV95b[] = {
/* columns rows colors chars-per-pixel */
"22 64 243 2 ",
"   c #020503",
".  c #0D0304",
"X  c #020B03",
"o  c #0B0B04",
"O  c #03040B",
"+  c #0C050C",
"@  c #040C0C",
"#  c #0C0C0C",
"$  c #120603",
"%  c #120B04",
"&  c #14050B",
"*  c #19030B",
"=  c #130C0B",
"-  c #1A0A0C",
";  c #1C0902",
":  c #021204",
">  c #0C1205",
",  c #02120C",
"<  c #0B110C",
"1  c #081A03",
"2  c #131203",
"3  c #1A1303",
"4  c #1C130D",
"5  c #13140A",
"6  c #030414",
"7  c #0A0114",
"8  c #020C14",
"9  c #0C0C12",
"0  c #050D19",
"q  c #0A0C19",
"w  c #08031B",
"e  c #1B0511",
"r  c #120B13",
"t  c #12051B",
"y  c #150818",
"u  c #051314",
"i  c #0B1213",
"p  c #061517",
"a  c #131114",
"s  c #131119",
"d  c #171715",
"f  c #280C04",
"g  c #261807",
"h  c #33150A",
"j  c #39150A",
"k  c #291A16",
"l  c #331413",
"z  c #2E0B14",
"x  c #132000",
"c  c #2B2003",
"v  c #070321",
"b  c #180928",
"n  c #090F2A",
"m  c #3D172A",
"M  c #201830",
"N  c #4B1908",
"B  c #51150A",
"V  c #501310",
"C  c #671609",
"Z  c #750E0C",
"A  c #4A260B",
"S  c #462212",
"D  c #542712",
"F  c #4E3A11",
"G  c #792904",
"H  c #722816",
"J  c #713517",
"K  c #6A3110",
"L  c #542B24",
"P  c #784307",
"I  c #6E4E0A",
"U  c #3A1946",
"Y  c #9F0F19",
"T  c #8B120F",
"R  c #B50F19",
"E  c #8C2A06",
"W  c #9B2A00",
"Q  c #92280B",
"!  c #8B3207",
"~  c #842A11",
"^  c #8F2817",
"/  c #903418",
"(  c #B32B0D",
")  c #A53409",
"_  c #B43308",
"`  c #A32D09",
"'  c #AE2F20",
"]  c #93302A",
"[  c #CD0C14",
"{  c #CB110D",
"}  c #F40400",
"|  c #FE0500",
" . c #FC0B0D",
".. c #E71507",
"X. c #F81904",
"o. c #FD0415",
"O. c #F81912",
"+. c #CD2C10",
"@. c #DA3615",
"#. c #CB3405",
"$. c #EA2803",
"%. c #FE2601",
"&. c #F62E01",
"*. c #FD2B01",
"=. c #FD2A0A",
"-. c #F52300",
";. c #EC3B02",
":. c #E73805",
">. c #F33402",
",. c #FC3401",
"<. c #F43B01",
"1. c #FD3A02",
"2. c #FC320C",
"3. c #F63B0B",
"4. c #FD3C0C",
"5. c #F3350E",
"6. c #FF2D12",
"7. c #EB3615",
"8. c #FF3512",
"9. c #FC3914",
"0. c #FB3718",
"q. c #E91D20",
"w. c #FF3A20",
"e. c #E42324",
"r. c #825413",
"t. c #9E4700",
"y. c #AC4106",
"u. c #A14418",
"i. c #B96D17",
"p. c #AE750C",
"a. c #D64911",
"s. c #C34B0E",
"d. c #E74A07",
"f. c #F54302",
"g. c #FD4301",
"h. c #FC420C",
"j. c #FB480A",
"k. c #E8570D",
"l. c #FC5501",
"z. c #FC5C01",
"x. c #FA580C",
"c. c #EC4415",
"v. c #F34313",
"b. c #FC4112",
"n. c #F74018",
"m. c #F8571D",
"M. c #C87200",
"N. c #EB6600",
"B. c #FD6803",
"V. c #FB7A05",
"C. c #FD6210",
"Z. c #F77611",
"A. c #F8452C",
"S. c #FF5629",
"D. c #F14F30",
"F. c #FC6639",
"G. c #F26F2D",
"H. c #FE4540",
"J. c #FB5646",
"K. c #D76948",
"L. c #F26D40",
"P. c #FA7248",
"I. c #FA7952",
"U. c #F37662",
"Y. c #D98A08",
"T. c #FF8600",
"R. c #FE850C",
"E. c #FF9A08",
"W. c #F08F14",
"Q. c #FAA804",
"!. c #F8A811",
"~. c #F18F24",
"^. c #F78839",
"/. c #E99130",
"(. c #E9A93F",
"). c #D78B35",
"_. c #D88751",
"`. c #EF995B",
"'. c #FB965C",
"]. c #F69756",
"[. c #ED8D4B",
"{. c #EDB05F",
"}. c #F3AB4E",
"|. c #D0946E",
" X c #F8A367",
".X c #FCBD70",
"XX c #E4AA78",
"oX c #E1C15C",
"OX c #EDC777",
"+X c #D2A790",
"@X c #F7BC82",
"#X c #EAB581",
"$X c #B3C59B",
"%X c #BAD4B0",
"&X c #DBCB99",
"*X c #F9C484",
"=X c #F8D98E",
"-X c #F6D797",
";X c #E9C491",
":X c #EDE99B",
">X c #FAE896",
",X c #EDF69C",
"<X c #F4F79D",
"1X c #C8D6A6",
"2X c #CFD9B1",
"3X c #F6D9A1",
"4X c #DFFBA7",
"5X c #EDEFA4",
"6X c #FDE9A5",
"7X c #FDEDAB",
"8X c #F2EDA9",
"9X c #EEFBA5",
"0X c #EEF4AC",
"qX c #ECFFAC",
"wX c #E8F1A0",
"eX c #F3F4A4",
"rX c #F3FCA5",
"tX c #F3F5AB",
"yX c #FDF4AD",
"uX c #F4FBAC",
"iX c #FCFAAD",
"pX c #FCF3A5",
"aX c #FAEDB4",
"sX c #EDFDB4",
"dX c #EAF9B5",
"fX c #F4F5B2",
"gX c #F5FEB3",
"hX c #FDFDB2",
"jX c #F3FFBC",
"kX c #FDFBBA",
"lX c #FAF3B4",
"zX c #C6BDC0",
"xX c #99DFC5",
"cX c #AEF0EE",
"vX c #C9D7D1",
"bX c #EEFBC6",
"nX c #FEFEC3",
"mX c #F7FDC4",
"MX c #FFF5DF",
"NX c #F6F3CF",
"BX c #F6FDEA",
"VX c #FCFDFF",
"CX c #F9F3F7",
/* pixels */
"# # # # # # # # # # # # # 9 # 9 # # # # # # ",
"# # # # # # 9 # # # # # # # # # # # # # # 9 ",
"# # # # # # # # # # # # # # # = # # # # # # ",
"# # # # # # # # < # < # # # # # # # # # # # ",
"# # # # # # # # # # # < # = < # # # # # # # ",
"# # # # # # # # o o # o # # # # # # # # # # ",
"# # # # # # # # # = = # # # # = # # # # # # ",
"# # # # # # # # 4 4 = = # # # 9 # # # # # # ",
"# # # # # # # # = u.j X i & , = # # # # # # ",
"# # # # # # # # : s./ 7 = # , = # # # # # # ",
"# # # # # # # + , N.a.v $ u # o # # # # # # ",
"# # # # # # # # k l.y.8 $ 9 - # # # # # # # ",
"# # # # = # # @ k @.H , % - = 8 # # # # # # ",
"# # # # # # # # . ] m g j o # 8 # # # # # # ",
"# o # # # # # # X m b D ~ X r # # # # # # # ",
"# @ # # # # # # 9 u v D s.@ - # # # # # # # ",
"# # # # # # # # = # 7 H y.6 @ a # # # # # # ",
"# # # # # # # # # > n H f b i o # # # # # # ",
"# # # # # # # # # X M U - r 9 > # # # # # # ",
"# # # # # # # # @ r p ; v @ o 9 # # # # # # ",
"9 # # # # # # # s + 0 g A w a X # # # # # # ",
"# # # # # # # # $ p ; q p.I O # # # # # # # ",
"# # # # # # # # % 0 % 7 I Q.F & # # # # # # ",
"# # # # # # # # r : , + F Q.p.# # # # # # # ",
"@ 9 r + > > $ t @ 1 D   I Q.Y.3 6 q a o o # ",
"# o o # q O 5 = @ F W.k p.E.Y.d $ o X > # r ",
"# # # a q q d X $ p.!.M.W.E.p.7 r 9 # # # # ",
"o @ # # o = 8   P T.W.T.R.E.r.  X @ # 9 = # ",
"= @ # @ % 5 O A R.~.R.V.V.V.P @ 3 3 - + @ < ",
"= @ 2 0 y & - i.V.}.~.V.~.V.t.8 8 0 t # o : ",
"o @ $ 8 9 - h Z.N.(.}.z./.`.N.J a @ 8 @ = % ",
"# s $ 0 5 c A z.G.oX{.z.^.OX^.B.k.! g @ 0 r ",
"9 : > , g L f l.[.&X;X).`.&XXXC.z.m./ : r - ",
"r o & i + & 1 ` _.2X$X2X1X2X&Xk.d.z.) O r o ",
"@ - e 9 y z J A S.%XvX%X_._.vXS.l.4.j y % 9 ",
"@ 9 O = : @ 3.@.,._.cXzX=.J.xXx.;.V q X < a ",
"  q u   : l $.f.4.>.+X$XO.|.+X2.H O e 3 . X ",
"f 0 < r 9 X B 9.b.<.6.f.3.K.A.5.4 & 6 L S u ",
"$ 8 @ o t s , N ;.,.0.f.<.2.1.,.G X : f 3 X ",
", 9 , % 8 o = 0 N 3.1.>.,.j.,.g.0.( E Q , q ",
"r % : f l s X s 6 ( f.S.D.*.1.3.<.;.4.E @ , ",
"@ @ t j 7.#.G - N :.>.G.6X].,.<.h.<.4.h O + ",
", % * X / f.h.;.c.:.1.8.-XbXOX,.>.1._ @ = $ ",
"O X i @ G 1.=.g.,.1.1.%..XdXmX`.*.g.S O s o ",
"r , e @ _ g.6.5.<.1.,.4.>XgXaX7Xv.1.j O s # ",
"o , . h 6.<.h.f.4.*.&. XqX:XiXgXL.*.Q O r * ",
"% 9 o Q g.>.1.<.$.F.OXsXdXtX7XgX'.%.:.S # * ",
"q X h 9.>.0.=.m..XeXhXuX7XuX5XgX].%.4.` : o ",
"# . W 1.1.*.P.9XhX,XaX9X>X@XbXgXF.>.,.c.G O ",
"+ g 7.<.>.F.iXeXeX8XhXyX>XS.XX'.9.,.1.3.7.f ",
"  C 0.,.c.>XqXiX0XiX0X9XmXS.-.b.3.,.,.4.8.C ",
"8 W 3.=.'.jX:XiXiX9X0XrXbX*Xj.$.>.1.,.,.,.~ ",
"8 _ 1.&.=XfXuXyXpXyX<XhXBXlX>X].5.*.h.>.,.Q ",
". +.,.v.:XkXtXtX9X7XeXdXVXBXdXhX'.*.1.;.4.Q ",
"O ' &.h.7XtXgX8XuX9XgXtXCXVXNXyXtXv.%.<.4.Z ",
": C h.*.@XuXtXyXtX0X6XjXVXVXBX8XfXG.%.1.9.N ",
"w g @.=.L.gX7X9XtX8XNXVXNXnXBXnXrXD.=.,.@.1 ",
"u . ^ 6.:.].jXaX<XqXkX&X[.-XdXmX=X2.,.9.~ . ",
"$ r = +.2.*.`.dXuXgX3Xc.X.I.uXmXL.$.4.e.h # ",
", a   c q.X.X.J.;XkXH.} X.A.iXU...-. .C O e ",
"9 . = : f [  .} O.c.O.T  .=.A.|  .o.C 1 e u ",
"@ @ a o . 4 T ..o.} { : Y | o...[ V , # d o ",
"& r @ % - 8 X ; V R V 8   Z T V 3   O & , @ ",
"@ # X @ < # 8 b r X @ # 7 + X 7 9 u r = @ 9 "
};
