/* XPM */
static char *_727a717d2bb4804b9b3a977a601dc3fPxmU5tXIP5hzG98e[] = {
/* columns rows colors chars-per-pixel */
"64 64 130 2 ",
"   c #050300",
".  c #0D0201",
"X  c #0A0801",
"o  c #140302",
"O  c #1B0303",
"+  c #150905",
"@  c #1C0906",
"#  c #170608",
"$  c #1D0608",
"%  c #150908",
"&  c #1C0909",
"*  c #1F100B",
"=  c #230303",
"-  c #2B0303",
";  c #240906",
":  c #2B0807",
">  c #230609",
",  c #2C0609",
"<  c #23090A",
"1  c #2B0A0B",
"2  c #330304",
"3  c #3B0203",
"4  c #330905",
"5  c #390906",
"6  c #340609",
"7  c #3A050A",
"8  c #340A0B",
"9  c #3D0F0F",
"0  c #3E0E0E",
"q  c #3B0B0C",
"w  c #21120F",
"e  c #33100C",
"r  c #32100F",
"t  c #3C100D",
"y  c #3C100D",
"u  c #230E10",
"i  c #2E0D10",
"p  c #340E12",
"a  c #3F0E11",
"s  c #3C0F12",
"d  c #3C0E12",
"f  c #2E1211",
"g  c #2B1213",
"h  c #331513",
"j  c #341110",
"k  c #391312",
"l  c #3C1215",
"z  c #460000",
"x  c #410403",
"c  c #460600",
"v  c #410507",
"b  c #430303",
"n  c #4A0300",
"m  c #4A0500",
"M  c #4B0600",
"N  c #480607",
"B  c #4B0303",
"V  c #430800",
"C  c #420807",
"Z  c #45020B",
"A  c #420709",
"S  c #42070B",
"D  c #43060A",
"F  c #48070B",
"G  c #48070D",
"H  c #4C060A",
"J  c #44090B",
"K  c #430B0C",
"L  c #450A0C",
"P  c #460B0D",
"I  c #400E0D",
"U  c #430A0C",
"Y  c #4B0A0E",
"T  c #4B090D",
"R  c #4B0A0C",
"E  c #530303",
"W  c #5A0404",
"Q  c #550802",
"!  c #5A0905",
"~  c #5C0905",
"^  c #5E0B07",
"/  c #590807",
"(  c #57050B",
")  c #53050B",
"_  c #58060C",
"`  c #5B050E",
"'  c #5C050A",
"]  c #53080C",
"[  c #5D080F",
"{  c #5B090D",
"}  c #41100D",
"|  c #430C11",
" . c #490B10",
".. c #4D0C10",
"X. c #4C0E11",
"o. c #4F0D11",
"O. c #4A0C12",
"+. c #500F17",
"@. c #540D12",
"#. c #5E0811",
"$. c #5D0D12",
"%. c #431113",
"&. c #4C1012",
"*. c #4F1114",
"=. c #4D1017",
"-. c #4C1313",
";. c #4D1B1A",
":. c #501011",
">. c #5A141C",
",. c #541818",
"<. c #600405",
"1. c #600008",
"2. c #64030A",
"3. c #65060A",
"4. c #63060C",
"5. c #68050A",
"6. c #68020D",
"7. c #6E040E",
"8. c #660A0F",
"9. c #660B0E",
"0. c #6A0A0E",
"q. c #6D0F0F",
"w. c #71060E",
"e. c #700B0F",
"r. c #630C13",
"t. c #760811",
"y. c #720E10",
"u. c #621014",
"i. c #6D1211",
"p. c #631219",
/* pixels */
". o 1 8 - 2 6 q I 3 5 2 = = O = o o O o = o 1 O O # . + O 4 7  .T 3 x D 6 - k 4 - 2 E 9.0.i.~ b x 3 3 3 3 7 4 6 7 - O o . o o , ",
"o o > > - 6 7 q 5 q 5 2 - O o 1 > $ = = = - f ; o O o ; ; 6 7 b X.F 3 T 7 2 1 - 2 3 ` 2.5.q.^ m x N b 3 3 4 4 2 q - = + o o $ 1 ",
"o # > > - 8 q q q l q q q : 1 h : , = = = 1 w @ O = O 6 2 2 y 2 U *.3 >.=.4 O O - 5 [ 6.w.y.W m x *.D 2 2 4 6 - 2 - o O o o = > ",
". o 1 , - , 4 4 4 q 2 3 l 5 8 1 - - = = = 1 ; o ; > - 8 4 5 y 2 2 T 3 >.+.3 = o = L #.6.t.e.Q c c Y 7 2 2 = 4 - > O o O + o O O ",
"o o = > = = O = = 9 7 7 5 2 - O - - - 2 : e = o ; O q k 6 q 4 4 4 - D J Z 7 = = 2 ..` 1.7.3.m c N X.3 - 4 = - = = o o + o O O = ",
"# . o = = = = = = 4 8 d %.q - = - - 2 4 - 4 : = , O p 4 4 4 2 5 4 - 9 3 Z 7 4 - 7 @.( ` 8.W x x N F 3 4 4 = = = O o o o o o O = ",
"# o o = = , ; ; O = - 7 | | 2 - - = 5 - - - - - - O , O - - 4 I 2 - 4 4 %.7 - 4 H ) N ] [ E b x B J I - 1 - - = O o o o O o o $ ",
"o o O = O = = O = O , 7 7 7 2 q 2 = q : = = = , = = = = , - 2 0 7 3 = = %.- = , ..@.3 v T n H T F T %.= - - 6 4 = = O $ O o o + ",
"o o O O O ; ; O O = - 6 7 2 2 6 2 2 2 1 O = ; : 8 = O > 1 = = 2 Y =.= o e : @ O 2 3 - 4 v B { $.] N - = , 6 6 7 , = > O O o o O ",
"o o O O = = @ O O = - q 7 2 2 q 2 - , 4 ; ; : 1 1 O = , p - = - b O.2 o = @ @ @ 2 - = = 3 x B $.T x - - , 2 6 6 - = > O o O + # ",
"o o O O O ; O @ O O - q 7 2 - 7 - 2 6 q 4 - , ; > o > , j 4 : - 2 7 4 ; = O @ @ : = = = 4 3 b @.H 3 - - , - - 6 , > > $ = O o O ",
"o o O O = o O = = = - 4 8 2 2 , - - 7 5 5 2 - = = o > i 6 6 q %.3 4 4 , ; : O @ e = 1 - J b 3 N B x 2 - - O = 6 , > , > @ O o + ",
"o o o = > O O = o = - - 6 6 , - = - 3 F H b 3 8 = o : = : 4 J O.d = - = - 8 = ; e - q 4 | 7 2 2 F b 3 6 ; O o , > O $ O O O o O ",
"o o o = = O O O = = - = - 6 - = - - 7 H ) F G q - o = = 6 3 Z L 5 = 4 2 2 8 , , 4 = 6 2 J q - 2 F B U q : + o o O O O o o O = > ",
"o o O = = O O O O = - - - - , = 2 3 N F B F Q 3 3 - = = q C N R 5 - 6 d 6 7 , = 1 = 2 6 q 2 - 3 T ) v 6 ; + . . # $ $ O . O = - ",
"o o O o O O = O O = = - - - = = 2 3 x b b n H x N 5 5 - y C b @.| - 4 7 - , = o = = - 7 q - 2 3 ] H v 4 @ + X X # O # o . O > i ",
"o o O O o o = o = , , - - - = - - 2 C M Q n n b r.) 2 - - 3 x :.q 2 2 8 , = $ = ; = = q - 2 7 T @.F 2 - f . . . . . . o o O # u ",
"= O O o O O = O O = - = - = - - - 2 N B Q n E E 9.$.3 - - 5 N v 7 6 6 6 - > o o = = = 4 - 6 Z @.@.v 4 8 g o . . X . O # O O # # ",
"= O = O O O = O = = - = = - - - 2 3 N n W E W 9.r.p.b - - 5 Y N 3 6 6 2 , > o o o - = - : 4 | G H 3 - 1 ; o o . . X # # $ # o o ",
"= O = = O = = = = - - - - - - 2 3 3 b n W W <.0.r.@.3 2 3 2 X.Y 3 4 , , > > o + o , = - : 1 6 7 N 5 - : O o % . . o @ O O # o . ",
"O = = = = = = = - 2 , 2 2 4 4 2 3 3 b n ! W 3.4.B N - 6 7 - C P 2 4 - O : # # o O - = - ; ; - 6 v Y 4 = o O % o o % # O O # o . ",
"= = : - = O = - - 2 2 2 2 2 2 2 3 3 N m Q ' 9.W 2 2 - - 6 2 5 0 4 4 = O O & # + = , - 6 1 = = - 3 *.5 = O & # o % % # O O O # o ",
"= = = = = = - 2 2 2 2 2 2 3 4 3 3 3 C c B / r.n - O = - 4 8 5 q 5 4 - = $ & > o = p 2 q 1 : O = 3 P : ; O & # o X % # O # # o . ",
"- = = = = - 6 2 2 2 3 3 2 2 3 2 3 2 C x n / r.b - o o > , - - q I 2 = O O = $ o O 7 2 7 1 , O - C U 4 1 o ; & o . o # $ > # # % ",
"= = = = - - 4 6 2 2 2 3 3 2 3 2 3 5 3 x B E [ b O o O = , 6 - 2 q 2 O = O 1 = O 6 q 7 7 2 , > O U ,.- = o # & . o . O O $ < # # ",
"- = = = - - 4 2 2 2 3 3 2 2 4 2 v v 3 b n / r.F = o o = - 7 2 2 7 4 O : = 1 > - - 5 S 7 6 , = = 5 } - = o & u . . o $ O o = # . ",
": = O = , = - - 2 2 2 3 2 2 2 2 x x x b E W r.T = o = = 7 S 3 3 J 4 = ; , i , 2 - 0 Y 7 7 6 - - J U - = O > & O . o $ O O $ . % ",
"O o O = - = - - 3 2 2 2 2 2 - - 3 x b b E ' [ T = o = - J T R P J 6 - , , 6 6 7 - 0 Y 3 J 9 2 2 | 7 = O O > O o o . o O O & . . ",
"o o $ $ ; = - - 2 6 2 2 - 2 - - 3 3 b n W 1.{ C - o = - G H ] ] J 2 = = p 8 7 8 2 5 Y 3 P K 2 3 } q = O $ $ O o + o O $ > > o . ",
"o o & = : = - - 2 7 2 2 - - - - 2 3 F n W [ H 3 - O : - Z H ) T D - = = 7 7 q 7 - 5 -.3 H v D Y X.3 - O $ & & # o O & = $ O . % ",
"o O @ $ O = = - - q 6 - - - = - 2 2 N n E [ N 4 = o = = G B B N 3 - = = 7 7 7 6 - - &.5 P N N :.T 4 4 o > < & # o o > O O O o % ",
"O $ @ o o O = = - d 6 - - - - - 2 3 R Q W $.U - = o ; = O.G N 3 4 , 1 > d 7 S 7 = = } 3 P N T @.G 3 q O $ & # O O o o o o # o . ",
"O O $ O O o o O : - q - - 4 4 2 3 x ) { ` B 5 = = < > - 7 J U 2 - = ; , 3 |  .q = @ 4 3 V N ` p.H G q o o # O O o O # . o O O $ ",
"O O = O ; O : < : - q - - 2 2 2 3 x Q r.] G 4 O O $ > 6 d 7 4 - = = : - q | G q ; ; 4 5 I 3 ) #.] X.q o o # $ $ $ O . % . # O = ",
"= O @ $ < ; < 1 : > q - - 2 2 4 3 3 n B Z 7 = O + O > , 8 2 - = = = = : 6 7 7 q : ; 4 5 5 3 T B F O.4 o + * $ # $ O O . . O O > ",
"$ O ; $ 1 < 1 = - = 4 = - - 2 3 x x H 3 2 2 = = o + = > - > = = = = = - 2 2 7 d = = 2 9 } 2 *.3 3 | - o @ u O O O O . o # O > - ",
"o O ; = > 1 1 : : O - = = 2 2 2 x N ,.- - - ; + o O # o O = O = = - ; : , - 6 q = = 2 J 5 - %.6 7 d = . @ & $ > = O o o # @ > > ",
"o O & = , > , , = O = = - 4 2 3 x L ;.= ; @ @ o o O o o O ; ; O = - = ; , = 6 - = = 4 q 6 = 1 , - 8 O . @ + O > > = o o + @ = = ",
"o + ; > , = - - = O ; = = 2 6 7 3 | 4 o @ o % O o o o O $ ; $ : - : O = , = 8 , = = 6 - 1 = = ; : ; + O * + O O > $ o o + O $ O ",
". o & > - = = 1 = o ; O = - 2 q 2 5 = o + + o $ o o o O & @ = , 1 q O O - - l q = O , - > = $ ; $ O . + + . $ > > O o o + O O O ",
"o + $ 1 - - = , > o O ; = - 7 2 7 - O + X X . # o $ O O $ > , > - : ; $ p l l , > > O = 1 O $ = o o # % . O u > > O o o o $ = o ",
"o O & < > , - 1 1 O = = = : 6 2 - > + o X X . + O $ O o > 1 6 , - : ; o 6 d l i O = O : 1 O O & O . # & o # > > $ # o o o O = O ",
"o $ ; > = , > , 1 = = O ; : 4 - = O o . X X o o O > o o > 8 8 - = : ; o - 2 4 ; : O = < , o ; ; # . O @ O o $ > O $ O o o o @ O ",
"o o $ = O > O : : = O O : : - > = O o . . X o o O = o o : 1 7 - - , : o = - > = = O < 1 1 O < = o . o $ O o O $ $ # # O O + + O ",
"o O O & = O o > = = = : , , - > = # O . . + o o o O o o = , 7 2 7 , = o 1 , ; O O = 1 l l > : o O # O & $ o O O # % # # o O O @ ",
"= o o < O = o , : - > , 1 - > O $ # o o # % # o o + . o O , 6 6 7 2 = o < = @ @ > - 6 7 d , : o O O < < > O O O o o o . + o O # ",
"O O O ; > > O 1 > > : 1 > : = o # # # O # @ O . o o . o O : 4 q Z 6 # o < ; + @ = , 4 2 7 6 1 = o & < < = O O # o . . o o o o # ",
"O O $ ; # < O 1 , = = , : < : o $ $ $ O $ & O o + % o + ; ; , 2 d 7 O o ; $ @ O = 2 7 6 d 6 > o O < 1 , > : O & % + # . . o . . ",
"o O o : = O O 1 ; u = o > = O o & ; # o O O & O # $ o = = = 1 6 4 - = @ = > 1 O - q 7 q - = > ; : = , 4 - > = $ # o . X . % .   ",
"o o O $ $ o O ; O i > o = < > o ; < $ O $ # > O $ > o = = = , , - : = = > 1 r = = 4 7 d 8 O : O = = 1 - - > = $ # o . . . % % . ",
"o + # @ O O O o o < < o O < = $ O o O o & o # o # = O > > : : 6 q 4 O O > - 1 = = 4 3 | r O = = = : 4 1 , , > > O o . %   %   . ",
"o + O O = o O o o = = O > : o o o o o o O o o o $ O o = = : : - q 8 $ O - , 1 O = 6 7 %.8 o = , = r q - , i > > o . . # % . # . ",
"# o o O & # o . O O = O < < O O O o o o # o # # < O o = > , = - 4 6 O + > , > O = 8 S d = o > , = 4 - O = , > # # o o % . . . . ",
"# o o % & O o o O O $ o > g > # = o o + $ o & & u # O O : > = = 8 p O + > , < o o 4 7 | , o - , = : = O O = & o o . . . . # # . ",
"o o o + % @ # o O O $ o & i # $ O o o o $ o & $ > O o = > : O = 8 q = + > > = o o 1 q d , o , i : : O O O O > O o . . # o o # . ",
". o o o # % @ o # . O o $ > o $ O O O o O o & & & o O = > 1 = = 6 6 O o > > $ o O , 2 6 > $ < , : O O : = o > O # o . . # # o . ",
"o o % o % & @ o # o # # $ $ o $ $ o o $ = o O < O o > < 1 , : = - q > o O O & & $ 1 , - = = < > $ : ; $ o o . O # . o o # . # o ",
". . o . % o # . O . o O O & o O = o O = > o O # O o > > 1 1 - - = 1 > O $ # @ O = f ; = > = > $ = $ $ # O o . o # o o o # o O o ",
". . % . % o % o . . O # # & o o & $ $ ; > & $ O O o = > 1 : - 1 = = > $ o % o o > < > = - = O # # @ # O o . .   # . o # O . o . ",
"o o % . % o # o . . o . O $ o o = & > = > & $ O O = $ = 1 O = = = o 1 # . o o o = = O = > O o o O O # . X . . . % . o # @ o # o ",
"o o # . # . % . . . o . o o o # O $ $ O # & $ o O o o = f O O = > o & # X X . O O = O O : o . . o o o X         . . . # @ O # . ",
". o # o o . .   . . # o . o o # O o o o O # O o O o O O 1 O O O o O @ @ # % . o O O > : $ # . . . o . .     X   . . o O & o # o ",
"o . o . # . . . % . . o . o # o o + o o o # o o o o O @ < ; = O O o . . % # # o O > 1 = o O . . o . .             . . O # o O . ",
"# o o . o . . . .     . % . . . o o o o o o O o o . o # ; O ; O o O     % o # # $ = > o o + . . o .             .   . o o o + . "
};
