/* XPM */
static char *ae3d35f9db0641649e64a26028c6c7f63zSBoaJUdNg4DCci[] = {
/* columns rows colors chars-per-pixel */
"64 64 149 2 ",
"   c #232636",
".  c #272A33",
"X  c #282C35",
"o  c #2B2E3B",
"O  c #2F313E",
"+  c #31343D",
"@  c #2C2F40",
"#  c #323543",
"$  c #363945",
"%  c #393B47",
"&  c #373A49",
"*  c #3B3E4A",
"=  c #3C3F50",
"-  c #3E414D",
";  c #3E4251",
":  c #40424F",
">  c #434653",
",  c #464955",
"<  c #494A57",
"1  c #444758",
"2  c #464A5A",
"3  c #4A4D5B",
"4  c #4E515E",
"5  c #50535F",
"6  c #4C4F61",
"7  c #4E5261",
"8  c #525563",
"9  c #565966",
"0  c #585A67",
"q  c #545768",
"w  c #56596A",
"e  c #5A5D6C",
"r  c #5B5E70",
"t  c #5E616E",
"y  c #5E6173",
"u  c #60626E",
"i  c #626574",
"p  c #666975",
"a  c #686A77",
"s  c #636679",
"d  c #66697B",
"f  c #6A6C7C",
"g  c #6E717E",
"h  c #70717E",
"j  c #676C80",
"k  c #6B6E81",
"l  c #706F81",
"z  c #6E7183",
"x  c #6F7488",
"c  c #727485",
"v  c #787785",
"b  c #767886",
"n  c #787A87",
"m  c #737689",
"M  c #76798B",
"N  c #7A7C8C",
"B  c #7B7E91",
"V  c #807F8E",
"C  c #807F91",
"Z  c #7E808F",
"A  c #7E8193",
"S  c #81828F",
"D  c #828495",
"F  c #888796",
"G  c #868897",
"H  c #898997",
"J  c #848699",
"K  c #888799",
"L  c #86899C",
"P  c #8A8C9D",
"I  c #908F9D",
"U  c #8D909F",
"Y  c #92919F",
"T  c #878CA0",
"R  c #8C8EA2",
"E  c #908FA2",
"W  c #8E91A4",
"Q  c #9293A5",
"!  c #9897A7",
"~  c #9698A7",
"^  c #999BA7",
"/  c #9496A9",
"(  c #9897A9",
")  c #9799AC",
"_  c #9A9BAD",
"`  c #9C9EB1",
"'  c #A09FAF",
"]  c #A19FB3",
"[  c #9EA0AF",
"{  c #9FA0B3",
"}  c #A1A1AE",
"|  c #A3A3B4",
" . c #A8A7B7",
".. c #A6A8B7",
"X. c #AAA9B7",
"o. c #A4A6B9",
"O. c #A8A7B9",
"+. c #A7A8BB",
"@. c #ABABBC",
"#. c #B0AFBE",
"$. c #AEB0BF",
"%. c #B2B1BF",
"&. c #ADAEC1",
"*. c #B0AFC1",
"=. c #AFB0C3",
"-. c #B3B3C4",
";. c #B8B7C7",
":. c #B6B8C7",
">. c #BAB9C7",
",. c #B4B6C9",
"<. c #B8B7C9",
"1. c #B7B8CB",
"2. c #BCBBCC",
"3. c #BDBED0",
"4. c #C0BFCE",
"5. c #C1BFD1",
"6. c #BEC0CF",
"7. c #BFC0D3",
"8. c #C2C1CE",
"9. c #C4C3D3",
"0. c #C8C7D6",
"q. c #C6C8D7",
"w. c #CAC9D6",
"e. c #C5C6D9",
"r. c #C9C7D9",
"t. c #C7C8D9",
"y. c #CCCBDB",
"u. c #D0CFDD",
"i. c #CED0DF",
"p. c #D3D1DE",
"a. c #CFCEE0",
"s. c #D1CFE1",
"d. c #D5D3E2",
"f. c #D8D6E5",
"g. c #DBD9E6",
"h. c #D7D6E8",
"j. c #DAD7E8",
"k. c #DDDCEA",
"l. c #E0DFEB",
"z. c #E3E2EE",
"x. c #E8E7EF",
"c. c #E5E3F1",
"v. c #E9E7F3",
"b. c #ECEBF4",
"n. c #EFEFFA",
"m. c #F0EEF5",
"M. c #F2EFF8",
"N. c #F2F0F7",
"B. c #F2F1FB",
/* pixels */
"~ ^ } @.| S V P D K R &.K *.e.F C Q C B O.e.s.s. .4.5.0.u.! O , N B B T / B W J v 3 & = u : % : s &.&.O.` e m m 2 # > 8 q w 1 y ",
"b i u 8 D ) a D E K ] o.O.-.] 6 x B R E ;.r.r.( Q u.;.r.l.F 6 n C ( _ ` ` D _ M 6 # = 3 8 % > q ` <.&.o.s d B 8 % * r w 6 7 z x ",
"p i 5 0 0 / Q J _ D ` o.( >.' h C N K ] 5.5.@.K 4.d.#.>.j.P M N Q <.<.e.o.` / q > 5 2 q 4 : 0 ` =.1.+.s y R w $ ; i y > w B L f ",
"H c u < < 0 )  .+.+.o.N *.>.P ( d C C 2.3.@.V *.l.s.;.y.j.V s Q t.t.t.5.` B o.j 3 6 = 6 > 0 ` &.&.&.d j R y 7 q y r ; d R A W A ",
"i b f g 8 0 m / | 2._ | j.;.E l N P *.5.] '  .s.5.0.X.y.h.v P h.y.E k N s M o.L w = = s j ` ,.` o.B x ) y 6 e 7 q j M W x B k W ",
"i N G Q n c D Q ) @.<.%.5.>. .D ] 5.5.] ' <.c.r.@.#.4.u.5. .y.u.l d 7 7 s j ` E M = y T ) =.o.] W z ` k 1 w r k x x ) B x s R / ",
"u b P Q Q Q G K K | -.9.4. .| D #.y.#.I 0.l.5.#.;.*.2.j.5.u.5.f w w 8 s r e L ,.=.C j W 5.e.=.&.&.o.A r j s L R j B ) B q A ` T ",
"Q n u e f P G z G N @.2.I E _ r.0.#.@.5.s.y.I ' O.2.4.l.j.y.D e f > 3 k j k j T ` ` C 5.3.` C T &.T B B j J x s B T x y W &.o.1.",
"p Z h f 3 8 i n W P <.k i ] *.4.@.*.>.5.j.@.! *.>.w.f.z.%./ s k m m M R M 8 r J m ( 2.3.W B C T x x W C / B j B ` x j ` ,.` &.1.",
", u Z H a e b P L | _ f R *.y.5.5.s.r.f.u.-.] 5.u.0.d.d. .G C J r c ` N @ q k f R 5.3.] j T T M B T x q j B T ` B M &.&./ &.&.a.",
"+ 5 f N Y e m Q R / N N *.;.4.u.y.r.r.-.*.] #.0.d.k.p.p.9.S m e 7 c k e B j r W 5.3.] J R ` j B ` j q q q B C o.W ,.&.` ,.5.e.3.",
"% - 4 G @.Y k G P Q G ` ;.5.y.4.O.` ( -.' ! 5.p.g.z.k.l._ > r m s 7 w c r s R ,.e.&./ J W x C ) j q j j B x o.,.1./ T ` o.] T T ",
"3 : p h f } X.| @.;.#.;.4.p.f.4.` W ` / _ E ;.y.d.v.l.;._ l M r q f B 6 y A ` 7.) / ` B M R &.j 6 j x A j ) s.&.T T T / T E 6 M ",
"5 u < - + N >.O.*.>.*.0.s.0.-.] / ) W T E P >.u.g.x.l.} ` ( 8 q c e 2 N B { 3.) W ) / x ` o.x 6 j B A j B a.7.T R x ) ] B x x ] ",
"5 - < , - [ *.V K *.4.d.p.2.X.' W R / _ ` 5.d.u.0.l.l.Q &.r r J q q J A { 7.R ) &.) ` &.) B j T / B j R s.e.o.T C { ] M B R B ` ",
": , u + S 9.v 6 I 9.p.u.u.' | ) W o.5.-.5.s.4.%.p.x.d.' / m C r y J N o.7.W ) =.o.` 1.` B ) R T R B B a.,.o.W C W / M x T ` C ,.",
"p 5 5 3 Q %.a 0 ' 0.9.>.4.) K ..` Q R / ;.e.| @.b.j.#._ O.B j N B B o.7.C T ) C o.,.` ` ` W / W B W s.,./ T o.B ` ) B ` o.+.o.s.",
"Y h 9 I D N } Q >.-.-.9._ _ 5.7.-.| D D ) 5.P 2.c.0.] ( R B j M B &.,.` o.` B ` ,.o.T B o.M / B / s.1.,.,.o./ W B W &.3.o.` 7.h.",
"4.} } } P c %.7.-.| %.>.Q j ] ` N k D e @.] Q 0.j.s.*.s x E x B +.,.C o.&.T ,.3./ / o.) j j ) &.h.,.&.{ ` o.&.W &.+.` x M ] s.c.",
"w.8.;.H P Q P -. .-.9.-.R P Q M d r y k 2.Q  .j.k.y.K r K T C ) &.T ` ,.` 3.,.R o.` o.B T o.e.a.o.` R ) &.1.` &.e.&.B T 3.h.h.c.",
">.>.;.>.2. .2.1.-.5.u._ B T x k l P l ) *.X.y.z.2.P K l o.-.E O.` ,.3./ e.3.] +.T / R ` ,.a.a.&.{ C +.3./ W ` ,.` ;.;.l.h.3.a.v.",
"@. .F Q V V ] c ( 2.;.( +.` k D R c D #.*.y.j.0.@.m r ` -.*.3.;.3.,.,.e.3.) C C W { { o.a.e.{ { W ` ,.B B &.7.&.;.y.l.u.3.3.z.v.",
"f.X.] -. .X.N m ! >._ *.t.o./ / / P ! 0.u.5.s.4.] T _ <.O.s.u.0.<.,.s.r.o.R C ` +.o.{ e.,.{ W R ` &.W B &.,.+.e.l.l.d.f.u.g.M.M.",
"0.>.@.k.r.Q G / +.;.&.9.-.=.&.D B &.4.u.u.w.g.u.&.&.] ( ;.u.l.f.j.j.e.,./ &.e.&.,.+.e.,.R ` ` o.T ` ` &.3.` ,.c.l.y.0.g.c.c.M.M.",
"Q 4.v ' ;.' ' ] 5.#.>.] c O.O.) | @.s.y.4.u.u.p.;.! | <.y.j.c.v.s.r.*._ <.r.&.` ] 5.=.&.&.&.&./ ` &._ 2.4.y.l.u.*.2.4.d.l.x.M.M.",
"8  .;.! I ' _ y.u.;.4.! / r.&.&.;.0.j. .#.y.u.l.-. .3.a.l.>.;.y.*.O._ *.5.( T ] a.<.=.5.&.] { { ] _ 1.y.s.l.u.>.*.9.y.d.w.y.M.N.",
"p h #.4.} }  .w.0.#.*. .*.9.&.*.<.0.4.;.w.p.g.f.0.y.k.y.! l K _ 4.<.-.s.&.( =.a.a.5.,.` / / M ) ` ,.5.u.d.u.0.w.d.s.y.u.w.u.M.N.",
"F u V 0.%.%.9.y.0.4.4.4.s.<./ X.5. .;.5.l.p.l.l.y.9.-.a 6 e c Q <.5.y.5.<.-.5.a.<.W T C / k B ` / 5.d.g.0.4.u.c.j.5.9.u.l.m.N.M.",
"v a G X.w.w.p.p.4.5.<.>.` *.&.| @.*.0.u.g.x.v.#.F / 0 < 0 0 D -.r.h.5.o.2.5.s.2./ T / M M E O.) 5.k.j.3.<.9.k.s.@.1.y.9.l.m.m.m.",
"v Y D Z u.d.g.y.0.4.] ] E *.+. .4.f.l.l.l.x.4.a Y N e 5 e f D @.*.t.<.-.<.h.=.C T / x r R &.| y.l.l.5.-.2.9.s. .8 O.>.u.x.x.m.m.",
"n Q Z ..8.0.y.w.4.' *.#.| |  .y.d.l.z.l.p.w.Y N S 0 > 5 u 8 v | 5.2.<.-.a.&.B T J z w T ,.o.s.k.k.9.3.2.O.5.e.&.N &.9.l.b.x.m.m.",
"Q G P >.%.w.0.w.-. .] !  .| 9.v.l.g.w.f.8.%.h v i < t 9 > e E *.-.-.s.a.=.C C B m x ) *.;.s.g.g.y.0.y.5.r.e.s.R D a.%.x.m.m.m.m.",
"@._ P >.6.w.-.| c / Q P (  .k.r.>.-.d.p.%.g s D i e < * > D @.<.&.5.h.<./ A j w R -.1.e.s.g.j.y.u.g.d.r.7.7.=.J 7.R @.M.b.x.b.b.",
"@.>.X.8.y.%.| Z M N i G _ s.2.! | 2.x.0.N t ~ i > $ : - i ) e.] X.u.<.&.+.M M ` &.O.y.k.l.d.2.y.s.f.*.| =.,.` &.` 7 :.n.z.x.g.g.",
"X.#.8.p.X.^ Y t n 0 , i ` @.P Q @.l.f.} g ~ 9 + % > > i i @.5.-.*.5.@.D T / { ` / 9.l.l.0.*.9.5.y.1.M T W A o.o.d y e.c.w.p.0.p.",
"} I w.8.Y I 0 s c # 8 / &._ B ( w.f.6.n U 8 X - , 9 f 7 N w.-.-.*.-._ D R / Q &.y.c.g.*.;.y.5.2.t.Q x d j &.{ 6 6 A -.j.u.w.>.p.",
"%.H w.>.} t 4 z e # b @.<.A R -.k.d.Q N t O - : , g 7 f &.9.2.3.&.+./ A J ) 1.h.f.h.-.4.e.9.e.e.+.A j j &.+.6   q R -.;.%.y.8.z.",
"u.4.8.;.b , 9 g $ e D >.R D | y.z.8.v e - , , 4 t w s P { =.t.2.+.R M J &.3.e.d.u.-.5.y.>.y.a.+./ k B o.M q ; 2 L Q 2.) %.u.8.g.",
"p.%.y.Y e 0 t 8 u f / _ L | -.f.g.n w 3 > 8 4 t w y Z _ =.@.d.@.T / ` 3.-.&.d.y.9.9.s.9.d.r.=.A j W ,.M # @ r j W W 1.) P -.%.w.",
"4.>.>.a t 4 p i g f ] P ` ..w.z.[ 8 4 > 4 t 7 w 8 A ..@.A 3.d.W M / <.` +.y.p.0.8.d.f.l.j.-.o./ { 1.=.T j x A W ` <.9.P d W ~ 8.",
"4.0.^ a , 0 a D Q R R _ | -.z.-.g 8 - 9 t 9 t t L ) [ x ` h.@._ ,.&.R O.f.u.p.w.p.k.z.j.1.,./ ` +.A s ; ; y B W ) 1.+.z s D L d.",
"8.0.S 3 , I Z Z @./ _  .>.c.d.v g 7 i 8 - t M P ~ / ) W e.:. .6.*.` *.k.p.p.f.p.z.z.y.@.T Z f j Z q @ ; 2 q 2 W o.&.W 6 B y W k.",
"p.%.0 5 N f.^ D $.[ ;.#.d.B.H f t y 4 % t Z G o.{ ,.{ W y.e.9.w.y.u.h.u.p.p.g.z.k.d._ v d y q 7 6 - 6 6 6 2 M { J e.W j N 2 | i.",
"l.} a 5 >.d.H  .[ O.O.9.B.^ e a i y > s x T ) L L ~ t +.2.0.d.f.u.y.u.u.p.l.l.l.d.[ c s t 6 2 1 - ; w 2 j j ) A / =.j j d e @.-.",
"f.X.u g y.'  ./ ^ ;.8.b.:.4 s t t 4 d M G W L f ) s A o...y.l.x.l.w.u.l.l.z.z.g.~ g c 7 7 ; - > ; 7 ; s y x W A &._ B k 2 M ..| ",
"p.P 8 X.| } _ Y ;.0.z.u.g t e b t t M b A A B L M N =.M P w.k.g.k.p.p.g.l.l.l.^ 3 N k 7 1 * 2 7 7 w Z j 7 A W o.1./ B q 1 ..L { ",
"0.0 c ) K -.! ;.0.p.p.S N a b G g 7 2 A N A W b M U o.R _ 7.z.c.g.l.l.x.x.z.%.c J q s q 7 7 7 s r j Z w y &.` { J M d 6 f ` B | ",
"H u ~ S _ P @.w.0.p.N i i Z G t 0 % b L x ) M y M L A { @.e.0.b.v.x.x.b.b.4.N H w r s r y w d y A A A j / W j ` y A f 2 / B N _ ",
"D G b _ Y H u.0.w.} 0 H v n , , 8 Z | f c N i l m i R ] 5.+.*.z.x.m.x.z.9.C R j q j y y r w y R A j q 6 j j j o.A A j 7 o.` A o.",
"~ a K } S w.0.8.%.h ' V 5 0 5 < L 9.b z N i c D s X.r.a.o.K O.z.B.x.l.y.Q L B J A j r A A x { x 6 2 2   x { A A A r 6 A ,.h.=.7.",
"G H | v w.8.8.8.F a S % < , > h 2.c D B k C K N ;.y.j.d./ m J 9.y.f.l.y.B k T T r 2 A =.W T 6 # $ 2 2 7 A A =.A j j q +.7.i.7.6.",
"} @.Q w.p.w.0.Y : p 5 : : % h %.q a N i Q ] B *.;.r.@.` k T ` Q @.f.y.s.P L A L A { { { { y y j Z j A A { 1.t.1.A w A i.i.6.+.+.",
">.2.g.p.p.%.S < t g , > % h -.c d K e N -.] ;.*.2.( r _ O.` D L } l.f.y.| -.6.d.i.{ =.e.{ A A T A A A A =.+.e.i.:.[ i.q.i.7.&.=.",
"p.f.u.p.X.t u 4 g 0 > % F H ~ N J y m -.O.| X.] ( R -.@./ R e.+._ y.f.d.y.9.y.>.{ 1.7.7.W y A M j j j A A o.7.h.t.p.g.l.7.6.1.A ",
"p.0.w.8.t a u p 4 9 - p b ~ @.N f D *.2.&. .| &.&.0./ w i -.2.! N ~ 0.d.9.7.h.i.=.o.A W T T x M j A A A A 1.e.t.g.b.b.l.) z { { ",
"4.X.8.h p a a 4 5 5 t 4 a 2.c e E &.1.+.<.>.4.0.@.N O , > u q q > P ..@.@.q.h.c.c.c.i.W { A x W A A ,.1.e.,.1.h.b.b.b.i.x 2 x j ",
"X.>.S 3 a F 5 < g 4 % : } _ N | >.=.h.X. .#.S < , 4 < 9 > 4 * O c 3.W [ ` 7.w.z.g.g.k.k.w.q.7.t.3.,.o.+.1.9.t.h.g.z.u.8.$.b A > ",
"8.H t 5 F I , h t $ % H | | [ +.v V H c N f X . < - 5 - , $ o 8 =.N e e y y e < g g.w.w.i.g.i.7.1.:.3.t.0.,.| ) ^ ~ ) 9.z.2.{ ; ",
"h 5 a t X.Y a a , - g 8.4.N f Z p : > 5 u + + , 5 < - # $ % q N >   O * , $ X X < Y q.6.:...+.~ o.+.{ o.o.` { ) A B M 2.h.p.$.4 ",
"5 S g g p g h 0 % t %.8.H 5 P b * e n D 0 , > < p 4 4 h c P { c w A A N , O $ - - , Z Z ~ W { W M f 1 1 d N =.L w z J t.6.0.-.9 ",
"u 5 g 0 5 S p % 5 #. .< , f 8 3 b >.>.p.6.>...X.6.:.6.:.=.| @.2.+.[ W [ W ~ n g 4 - + - 7 9 9 6 ; & $ & $ 7 ~ d 6 3 _ t.>.2.0.c ",
"4 5 a : h h % h X.#.e 3 g n ^ #.p.0.9.>.! N H Q ~ P ~ -.N M ^ s 7 y 7 3 p g y p y 4 - 2 ; $ y U A M g y ; > A A s m | <.d.9.0.S ",
": g t 5 V : v ! Y Y V 4.u.u.c.y.! V g 5 < 9 > e g n Z n ^ x t , 9 t 4 - - + ; , 8 8 p t ; - 4 y 4 9 b G m i M L c &.0.3.X.-.j.P ",
"5 a : H g D v a w.f.M.x.0.4. .K u c G v n a i g y 3 8 , z A y t , 3 p , $ $ $ - - # t x 9 9 3 o $ - - # ; q j B ) @.0.w.$.:.z.} "
};
